<svg width="512" height="512" viewBox="0 0 512 512" fill="none" xmlns="http://www.w3.org/2000/svg">
<g clip-path="url(#clip0_5_248)">
<path d="M309.333 96C309.333 125.455 285.455 149.333 256 149.333C226.545 149.333 202.667 125.455 202.667 96C202.667 66.5449 226.545 42.6667 256 42.6667C285.455 42.6667 309.333 66.5449 309.333 96Z" stroke="white" stroke-width="30"/>
<path d="M448 362.667L423.302 354.347C418.455 352.715 413.845 350.436 409.596 347.573L407.435 346.118C392.794 336.256 384 319.652 384 301.871C384 249.877 346.801 205.507 296.047 196.959L277.043 193.759C266.667 191.997 245.333 192 234.957 193.759L215.953 196.959C165.2 205.507 128 249.877 128 301.871C128 319.652 119.206 336.256 104.564 346.118L102.405 347.573C98.1538 350.436 93.5441 352.715 88.6976 354.347L64 362.667" stroke="white" stroke-width="30" stroke-linecap="round" stroke-linejoin="round"/>
<path d="M202.667 341.333L182.944 367.631C179.796 371.827 178.222 373.926 176.455 375.774C172.083 380.346 166.748 383.887 160.838 386.142C158.45 387.055 155.905 387.691 150.816 388.962L112.556 398.528C96.5571 402.528 85.3334 416.902 85.3334 433.393C85.3334 453.244 101.424 469.333 121.273 469.333H135.86C172.301 469.333 207.759 457.515 236.913 435.65L277.333 405.333M309.333 341.333L324.836 362.003C332.162 371.774 335.827 376.657 340.582 380.267C342.012 381.353 343.509 382.347 345.065 383.243C350.238 386.225 356.16 387.708 368.006 390.669L399.443 398.528C415.443 402.528 426.667 416.902 426.667 433.393C426.667 453.244 410.577 469.333 390.726 469.333H370.722C358.726 469.333 352.73 469.333 346.782 469.001C329.214 468.019 311.834 464.868 295.04 459.618C289.355 457.841 283.74 455.735 272.508 451.524L234.667 437.333" stroke="white" stroke-width="30" stroke-linecap="round" stroke-linejoin="round"/>
</g>
<defs>
<clipPath id="clip0_5_248">
<rect width="512" height="512" rx="100" fill="white"/>
</clipPath>
</defs>
</svg>
